<svg width="659" height="160" viewBox="0 0 659 160" fill="none" xmlns="http://www.w3.org/2000/svg">
<g clip-path="url(#clip0_6_5)">
<path fill-rule="evenodd" clip-rule="evenodd" d="M76.0176 0C86.4978 6.18791e-05 96.3608 2.09025 105.545 6.30371L106.402 6.69336C115.225 10.7737 123.022 16.3768 129.769 23.4775C136.725 30.7995 142.134 39.2836 145.997 48.8877L146.363 49.793C150.087 59.1597 151.932 69.1473 151.932 79.71C151.932 89.3038 150.404 98.42 147.315 107.022C145.056 113.317 142.478 119.534 136.989 127.306C142.195 128.926 147.668 129.744 153.432 129.744H161.335C159.236 124.37 158.192 118.635 158.192 112.578V44.0645H182.852V109.702C182.852 114.439 183.994 118.622 186.233 122.372C188.531 126.22 191.574 129.267 195.418 131.567C199.263 133.829 203.462 134.967 208.118 134.967C212.856 134.967 216.991 133.824 220.657 131.603L220.687 131.585C224.544 129.282 227.597 126.229 229.9 122.372C232.139 118.622 233.282 114.439 233.282 109.702V44.0645H257.937L258.05 157.058H233.422L233.372 150.196C231.291 151.8 229.05 153.239 226.65 154.509L226.649 154.508C220.119 158.001 212.988 159.728 205.345 159.728C196.73 159.728 188.766 157.62 181.568 153.363C177.157 150.754 173.294 147.574 169.991 143.839V154.266H153.432C142.404 154.266 131.994 152.245 122.253 148.169L122.237 148.163L122.223 148.156C120.867 147.579 119.534 146.969 118.223 146.331C112.67 150.488 107.874 153.019 102.68 155.06C94.2444 158.4 84.8395 159.42 76.0176 159.42C65.5332 159.42 55.6368 157.362 46.3867 153.219L46.3555 153.205C37.2049 149.033 29.1369 143.312 22.1807 136.063L22.1719 136.054L22.1631 136.045C15.2029 128.719 9.75747 120.23 5.82617 110.621L5.81445 110.59C1.92738 100.909 3.51005e-05 90.6011 0 79.71C0 68.8189 1.92706 58.5388 5.81934 48.9189L5.82324 48.9102L5.82617 48.9004C9.75745 39.2914 15.2029 30.8035 22.1631 23.4775C29.1191 16.156 37.1924 10.4269 46.3555 6.31738L47.2256 5.92773C56.2325 1.96743 65.8481 0 76.0176 0ZM76.0176 24.6572C68.8662 24.6572 62.2534 26.1132 56.1172 28.9971L56.0977 29.0068C49.9388 31.8683 44.4872 35.8477 39.7256 40.9844L39.7266 40.9854C35.0277 46.0598 31.3165 51.9296 28.5967 58.6338C25.9821 65.1787 24.6592 72.1894 24.6592 79.71C24.6592 87.372 26.0177 94.484 28.6992 101.094C31.4133 107.784 35.1495 113.645 39.9082 118.717C44.6598 123.781 50.1028 127.73 56.2578 130.597C62.4192 133.367 68.9879 134.762 76.0176 134.762C81.6124 134.762 87.0906 133.75 92.4795 131.706L92.4883 131.702L92.4971 131.699C93.6801 131.256 94.7665 130.838 95.832 130.387C88.8583 123.33 83.3534 115.196 79.3311 106.013L79.3242 105.996L79.3174 105.98C77.2523 101.177 75.7023 96.2064 74.6699 91.0762C74.1746 88.6147 73.487 84.3378 73.4863 81.3213L73.4854 76.1826L78.624 76.1816C89.5134 76.1798 86.478 76.1815 93.8066 76.1797L98.9463 76.1787V81.3184C98.9464 82.6222 99.2661 83.9157 99.7227 86.167C100.432 89.6647 101.495 93.0432 102.913 96.3076C105.779 102.906 109.732 108.707 114.788 113.74C115.061 114.012 115.337 114.28 115.614 114.546C121.115 107.283 122.659 102.523 124.357 97.4814C126.302 91.7101 127.272 85.7935 127.272 79.71C127.272 72.0478 125.914 64.9351 123.232 58.3252C120.518 51.6351 116.782 45.7736 112.023 40.7021L112.012 40.6895L112 40.6777C107.329 35.6334 101.901 31.7264 95.6855 28.9297L95.6289 28.9043C89.5518 26.0808 83.0348 24.6573 76.0176 24.6572Z" fill="white"/>
<path fill-rule="evenodd" clip-rule="evenodd" d="M317.929 41.1885C328.312 41.1885 337.86 43.874 346.446 49.2686C355.001 54.5997 361.794 61.7819 366.792 70.7334C371.902 79.7613 374.429 89.74 374.429 100.561C374.429 108.652 372.978 116.305 370.038 123.467C367.133 130.542 363.093 136.831 357.925 142.299C352.808 147.716 346.817 151.973 339.986 155.054C333.12 158.181 325.747 159.728 317.929 159.728C307.546 159.728 297.972 157.042 289.326 151.658L289.317 151.653L289.309 151.647C280.835 146.324 274.052 139.192 268.988 130.33L268.963 130.285C263.923 121.26 261.429 111.317 261.429 100.561C261.429 92.407 262.877 84.7202 265.819 77.5527C268.718 70.4233 272.719 64.1303 277.829 58.7197L277.83 58.7178C283.013 53.2348 289.042 48.9373 295.89 45.8525C302.806 42.7365 310.171 41.1885 317.929 41.1885ZM317.929 65.8467C311.907 65.8467 306.596 67.423 301.854 70.5459L301.848 70.5498L301.842 70.5547C297.041 73.6955 293.203 77.8673 290.31 83.1582L290.051 83.6504C287.422 88.7603 286.088 94.369 286.088 100.561C286.088 107.137 287.569 112.97 290.46 118.171L290.739 118.659C293.652 123.661 297.455 127.623 302.172 130.618C306.955 133.588 312.169 135.069 317.929 135.069C323.965 135.069 329.239 133.519 333.9 130.473C338.788 127.254 342.624 123.04 345.445 117.758L345.467 117.719C348.33 112.469 349.77 106.778 349.77 100.561C349.77 94.1882 348.322 88.432 345.467 83.1973L345.461 83.1875L345.455 83.1768C342.564 77.8158 338.697 73.6103 333.835 70.4678L333.822 70.46L333.811 70.4512C329.137 67.3937 323.892 65.8467 317.929 65.8467Z" fill="white"/>
<path fill-rule="evenodd" clip-rule="evenodd" d="M498.309 41.1885C506.609 41.1885 514.353 42.838 521.462 46.2012C528.557 49.5251 534.655 54.1849 539.717 60.1514C544.833 66.1014 548.639 73.0299 551.16 80.8711L551.4 81.6152C553.839 89.3189 554.816 97.5473 554.392 106.255L554.153 111.144H468.12C468.385 112.625 468.688 114.119 469.042 115.571C469.891 119.051 470.931 121.904 472.113 123.759C473.665 126.132 474.795 127.523 475.986 128.633C477.186 129.751 478.637 130.762 481.058 132.184C482.855 133.194 485.498 133.945 488.74 134.42C491.906 134.883 495.274 135.035 498.309 135.069C504.213 135.069 509.394 133.551 513.998 130.559L514.011 130.551L514.022 130.543C518.782 127.488 522.654 123.265 525.628 117.743L527.49 114.284L551.997 119.979L549.424 125.683C544.931 135.642 538.13 143.823 529.101 150.166L529.089 150.174L529.077 150.183C519.914 156.544 509.608 159.728 498.309 159.728C487.926 159.728 478.351 157.042 469.706 151.658L469.697 151.653L469.688 151.647C461.493 146.498 455.33 141.245 450.125 132.138L450.1 132.093C445.109 123.154 441.809 111.416 441.809 100.561C441.809 92.407 443.257 84.7202 446.199 77.5527C449.098 70.4234 453.099 64.1303 458.209 58.7197L458.21 58.7178C463.393 53.2348 469.422 48.9373 476.27 45.8525C483.186 42.7364 490.551 41.1885 498.309 41.1885ZM498.309 64.5107C492.832 64.5108 487.928 65.8529 483.481 68.5088L483.438 68.5342C478.904 71.1838 475.185 74.8011 472.255 79.4648L472.246 79.4775L472.238 79.4902C470.323 82.4999 468.89 85.7496 467.939 89.2588H528.771C527.927 85.8752 526.541 82.7085 524.61 79.7354L524.589 79.7031L524.568 79.6699C521.642 75.0117 517.885 71.3514 513.264 68.626L513.243 68.6143L513.222 68.6016C508.698 65.8763 503.764 64.5107 498.309 64.5107Z" fill="white"/>
<path fill-rule="evenodd" clip-rule="evenodd" d="M418.07 44.0645H442.638V68.7227H418.081C418.041 100.286 418.087 91.7663 418.087 100.561L418.079 109.707C418.08 114.442 419.223 118.623 421.461 122.372C423.758 126.22 426.802 129.267 430.646 131.567C431.815 132.255 433.01 132.834 434.229 133.309C434.736 133.505 435.24 133.72 435.606 133.873C436.009 134.041 436.305 134.161 436.575 134.256C437.086 134.436 437.333 134.465 437.496 134.465H442.636V159.64H437.496C436.663 159.64 436.046 159.631 435.592 159.609C435.369 159.599 435.098 159.58 434.818 159.544C434.631 159.52 434.137 159.452 433.556 159.239C431.723 158.978 429.921 158.614 428.152 158.142C424.167 157.078 420.378 155.481 416.796 153.363C409.682 149.156 403.992 143.467 399.785 136.354C395.528 129.156 393.42 121.192 393.42 112.578L393.428 68.7227H374.835V44.0645H393.411L393.309 11.8115H417.968L418.07 44.0645ZM430.815 156.946C430.827 156.966 430.84 156.986 430.854 157.008C430.791 156.903 430.746 156.825 430.74 156.813C430.754 156.838 430.785 156.894 430.815 156.946ZM439.623 151.653C439.621 151.65 439.619 151.646 439.617 151.643C439.614 151.638 439.611 151.634 439.608 151.63C439.613 151.638 439.618 151.646 439.623 151.653Z" fill="white"/>
<path d="M602.05 79.3213L628.003 43.7559H658.37L617.248 100.35L658.596 157.058H628.1L602.051 121.208L575.909 157.058H545.418L586.762 100.354L545.525 43.7559H576.005L602.05 79.3213Z" fill="white"/>
</g>
<defs>
<clipPath id="clip0_6_5">
<rect width="659" height="160" fill="white"/>
</clipPath>
</defs>
</svg>
