<?xml version="1.0" encoding="UTF-8" standalone="no"?>
<!-- Created with Inkscape (http://www.inkscape.org/) -->

<svg
   width="210mm"
   height="297mm"
   viewBox="0 0 210 297"
   version="1.1"
   id="svg1"
   inkscape:version="1.4 (e7c3feb1, 2024-10-09)"
   sodipodi:docname="quotex.svg"
   xmlns:inkscape="http://www.inkscape.org/namespaces/inkscape"
   xmlns:sodipodi="http://sodipodi.sourceforge.net/DTD/sodipodi-0.dtd"
   xmlns="http://www.w3.org/2000/svg"
   xmlns:svg="http://www.w3.org/2000/svg">
  <sodipodi:namedview
     id="namedview1"
     pagecolor="#ffffff"
     bordercolor="#000000"
     borderopacity="0.25"
     inkscape:showpageshadow="2"
     inkscape:pageopacity="0.0"
     inkscape:pagecheckerboard="0"
     inkscape:deskcolor="#d1d1d1"
     inkscape:document-units="mm"
     inkscape:export-bgcolor="#ffffff00"
     inkscape:zoom="0.9174632"
     inkscape:cx="337.34323"
     inkscape:cy="522.63677"
     inkscape:window-width="1440"
     inkscape:window-height="900"
     inkscape:window-x="0"
     inkscape:window-y="0"
     inkscape:window-maximized="0"
     inkscape:current-layer="layer1" />
  <defs
     id="defs1" />
  <g
     inkscape:groupmode="layer"
     id="layer1"
     inkscape:label="Layer 1">
    <text
       xml:space="preserve"
       style="font-style:normal;font-variant:normal;font-weight:normal;font-stretch:normal;font-size:89.9999px;line-height:0;font-family:Urbanist;-inkscape-font-specification:Urbanist;text-align:start;letter-spacing:0px;writing-mode:lr-tb;direction:ltr;text-anchor:start;display:none;fill:#000000;stroke:#000000;stroke-width:4.62201"
       x="78.630501"
       y="68.408539"
       id="text2"
       sodipodi:insensitive="true"><tspan
         sodipodi:role="line"
         id="tspan2"
         style="stroke-width:4.622"
         x="0"
         y="0" /></text>
    <path
       d="m 64.643179,152.76181 c 0,8.77054 9.198164,17.78321 21.996094,17.78321 v -3.71094 c -11.02602,0 -18.287109,-8.05468 -18.287109,-14.07227 z"
       id="path2"
       style="fill:none;stroke:#000000;stroke-width:2.719;stroke-dasharray:none;stroke-opacity:1" />
    <path
       d="m 59.399935,225.7278 -7.019993,-6.93 q -3.689996,2.79 -8.234991,4.365 -4.499995,1.575 -9.494989,1.575 -6.389993,0 -12.014987,-2.52 -5.624994,-2.565 -9.899989,-7.01999 -4.2749953,-4.5 -6.7049926,-10.43999 -2.4299974,-5.93999 -2.4299974,-12.68999 0,-6.74999 2.4299974,-12.64498 2.4299973,-5.94 6.7049926,-10.43999 4.274995,-4.5 9.899989,-7.01999 5.624994,-2.565 12.014987,-2.565 6.434993,0 12.059987,2.565 5.624993,2.51999 9.899989,7.01999 4.274995,4.49999 6.659992,10.43999 2.429998,5.89499 2.429998,12.64498 0,5.265 -1.529999,10.03499 -1.529998,4.725 -4.184995,8.72999 l 7.154992,7.155 z M 34.649962,213.75781 q 2.609997,0 5.129994,-0.765 2.519997,-0.81 4.634995,-2.25 l -5.714994,-5.71499 7.739992,-7.78499 5.354994,5.39999 q 1.439998,-2.33999 2.159998,-5.03999 0.764999,-2.7 0.764999,-5.535 0,-4.49999 -1.574999,-8.41499 -1.574998,-3.91499 -4.364995,-6.88499 -2.744997,-3.015 -6.389993,-4.67999 -3.599996,-1.71 -7.739991,-1.71 -4.139996,0 -7.784992,1.71 -3.644996,1.70999 -6.434993,4.72499 -2.744996,2.97 -4.319995,6.88499 -1.529998,3.915 -1.529998,8.36999 0,4.455 1.574998,8.41499 1.574998,3.915 4.319995,6.93 2.789997,2.96999 6.389993,4.67999 3.644996,1.665 7.784992,1.665 z m 38.360206,-6.56999 v -28.34997 h 10.979987 v 25.46997 q 0,2.655 1.304999,4.86 1.304999,2.15999 3.464996,3.46499 2.204998,1.26 4.814995,1.26 2.699997,0 4.859995,-1.26 2.16,-1.305 3.465,-3.46499 1.30499,-2.205 1.30499,-4.86 v -25.46997 h 10.97999 l 0.045,44.99995 h -10.97999 l -0.045,-4.095 q -2.33999,2.43 -5.53499,3.87 -3.194996,1.395 -6.839992,1.395 -4.904995,0 -8.95499,-2.385 -4.049996,-2.43 -6.479993,-6.43499 -2.384997,-4.05 -2.384997,-8.99999 z m 69.324712,17.81998 q -6.21,0 -11.33999,-3.195 -5.085,-3.195 -8.14499,-8.54999 -3.015,-5.39999 -3.015,-11.92499 0,-4.94999 1.755,-9.22499 1.755,-4.31999 4.81499,-7.55999 3.105,-3.28499 7.19999,-5.12999 4.095,-1.845 8.73,-1.845 6.20999,0 11.29498,3.195 5.13,3.19499 8.14499,8.59499 3.06,5.39999 3.06,11.96998 0,4.905 -1.755,9.17999 -1.755,4.275 -4.85999,7.56 -3.06,3.23999 -7.15499,5.08499 -4.05,1.845 -8.72999,1.845 z m 0,-10.97999 q 3.28499,0 5.89499,-1.755 2.61,-1.755 4.09499,-4.63499 1.53,-2.88 1.53,-6.3 0,-3.50999 -1.575,-6.38999 -1.52999,-2.925 -4.18499,-4.63499 -2.61,-1.755 -5.75999,-1.755 -3.24,0 -5.85,1.755 -2.61,1.75499 -4.13999,4.67999 -1.53,2.925 -1.53,6.34499 0,3.555 1.575,6.435 1.57499,2.87999 4.18499,4.58999 2.655,1.665 5.76,1.665 z m 53.70965,-24.20997 h -8.72999 v 34.01996 h -10.97998 v -34.01996 h -6.66 v -10.97999 h 6.66 v -14.12999 h 10.97998 v 14.12999 h 8.72999 z m 26.88973,35.18996 q -6.21,0 -11.33999,-3.195 -5.085,-3.195 -8.14499,-8.59499 -3.015,-5.39999 -3.015,-11.92499 0,-4.90499 1.755,-9.17999 1.755,-4.31999 4.81499,-7.55999 3.105,-3.28499 7.2,-5.12999 4.09499,-1.845 8.72999,-1.845 5.26499,0 9.62999,2.25 4.40999,2.205 7.46999,6.07499 3.05999,3.87 4.45499,8.81999 1.395,4.95 0.63,10.34999 h -32.89496 q 0.63,2.52 2.07,4.54499 1.43999,1.98 3.64499,3.195 2.205,1.17 4.995,1.215 2.87999,0.045 5.21999,-1.35 2.385,-1.44 3.96,-3.86999 l 11.20498,2.60999 q -2.74499,5.985 -8.18999,9.80999 -5.44499,3.78 -12.19498,3.78 z m -11.06999,-28.16997 h 22.13997 q -0.495,-2.7 -2.11499,-4.86 -1.575,-2.20499 -3.915,-3.50999 -2.34,-1.305 -5.03999,-1.305 -2.7,0 -4.995,1.305 -2.295,1.26 -3.91499,3.46499 -1.575,2.16 -2.16,4.905 z m 35.05482,26.99997 16.46998,-22.58998 -16.33498,-22.45497 h 13.54498 l 9.53999,13.09498 9.58499,-13.09498 h 13.54499 l -16.33499,22.45497 16.46999,22.58998 h -13.54499 l -9.71999,-13.31999 -9.67499,13.31999 z"
       id="text3"
       style="font-weight:bold;font-size:89.9999px;line-height:0;font-family:Urbanist;-inkscape-font-specification:'Urbanist Bold';letter-spacing:0px;stroke-width:2.719"
       aria-label="Quotex" />
    <path
       d="m 34.010051,164.39761 c -4.152807,0 -7.944497,-0.81158 -11.375076,-2.43474 -3.400489,-1.62315 -6.123887,-3.79497 -8.170198,-6.51547 -2.016216,-2.74337 -3.024324,-5.77251 -3.024324,-9.08741 m 6.319486,0 c 0,2.46901 0.737274,4.70944 2.21182,6.72124 1.47455,1.98893 3.44563,3.57781 5.913236,4.7666 2.46761,1.16592 5.175963,1.74889 8.125056,1.74889"
       style="font-size:52.953px;line-height:0;font-family:Urbanist;-inkscape-font-specification:Urbanist;letter-spacing:0px;fill:none;stroke:#000000;stroke-width:2.719;stroke-dasharray:none"
       id="path1" />
    <path
       style="font-size:52.953px;line-height:0;font-family:Urbanist;-inkscape-font-specification:Urbanist;letter-spacing:0px;fill:#ffffff;fill-opacity:1;stroke:#ffffff;stroke-width:2.719;stroke-opacity:1;stroke-dasharray:none"
       d="m 39.012384,135.7813 c -1.959261,0.77664 -4.199305,1.03212 -6.388029,1.03212 -2.524093,0 -4.889327,-0.49423 -7.095702,-1.48268 -2.206375,-1.00611 -4.147985,-2.38289 -5.82483,-4.13034 -1.676845,-1.7651 -2.991844,-3.81261 -3.944998,-6.14254 -0.935503,-2.32993 -1.403255,-4.81873 -1.403255,-7.46638 0,-2.64765 0.467752,-5.12761 1.403255,-7.43989 0.953154,-2.32993 2.268153,-4.37745 3.944998,-6.14255 1.676845,-1.7651 3.618455,-3.14187 5.82483,-4.130325 2.206375,-1.006107 4.571609,-1.50916 7.095702,-1.50916 2.524093,0 4.880501,0.503053 7.069225,1.50916 2.206375,0.988455 4.147985,2.365225 5.82483,4.130325 1.676845,1.7651 2.983019,3.81262 3.918522,6.14255 0.953154,2.31228 1.429731,4.79224 1.429731,7.43989 0,2.32993 -0.370671,4.52748 -1.112013,6.59265 -0.741342,2.06517 -1.599048,4.06019 -4.176094,7.04321 -2.82416,2.7006 -4.58926,3.77731 -6.566172,4.55396 z m 7.326798,-13.18579 c 0.547181,-1.62389 0.820771,-3.29191 0.820771,-5.00406 0,-2.13577 -0.379496,-4.13915 -1.138489,-6.01016 -0.758993,-1.87101 -1.809228,-3.52138 -3.150704,-4.95111 -1.323825,-1.42973 -2.868287,-2.54174 -4.633387,-3.33604 -1.747449,-0.81195 -3.618455,-1.21792 -5.613018,-1.21792 -2.029865,0 -3.927347,0.4148 -5.692447,1.2444 -1.747449,0.81195 -3.291912,1.94161 -4.633388,3.38899 -1.323825,1.42973 -2.365234,3.0801 -3.124227,4.95111 -0.741342,1.85335 -1.112013,3.83026 -1.112013,5.93073 0,2.13577 0.379497,4.13916 1.13849,6.01017 0.758993,1.87101 1.809227,3.52137 3.150703,4.9511 1.341476,1.42973 2.885939,2.55057 4.633388,3.36252 1.7651,0.79429 3.644931,1.19144 5.639494,1.19144 1.606241,0 3.17718,-0.29124 4.712817,-0.87372 1.553288,-0.58249 2.82968,-1.09739 5.627174,-3.71949 2.299043,-2.68737 2.827655,-4.29407 3.374836,-5.91796 z m 8.790222,3.46842 v -16.336 h 3.70671 v 15.59466 c 0,1.44738 0.35302,2.76238 1.05906,3.945 0.70604,1.18262 1.650369,2.12695 2.832986,2.83299 1.200268,0.70604 2.515267,1.05906 3.944998,1.05906 1.447382,0 2.753556,-0.35302 3.918522,-1.05906 1.182617,-0.70604 2.126946,-1.65037 2.832986,-2.83299 0.70604,-1.18262 1.05906,-2.49762 1.05906,-3.945 v -15.59466 h 3.70671 l 0.02648,26.4765 h -3.70671 l -0.02648,-3.70671 c -0.935503,1.34148 -2.153422,2.40937 -3.653757,3.20366 -1.482684,0.79429 -3.106576,1.19144 -4.871676,1.19144 -1.994563,0 -3.812616,-0.4854 -5.454159,-1.45621 -1.641543,-0.9708 -2.947717,-2.27697 -3.918522,-3.91852 -0.970805,-1.64154 -1.456208,-3.45959 -1.456208,-5.45416 z m 39.847171,10.82889 c -2.435838,0 -4.659864,-0.62661 -6.672078,-1.87983 -1.994563,-1.25322 -3.591978,-2.93006 -4.792246,-5.03053 -1.182617,-2.11812 -1.773926,-4.45688 -1.773926,-7.01628 0,-1.94161 0.344195,-3.75083 1.032584,-5.42768 0.688389,-1.69449 1.632717,-3.17718 2.832985,-4.44805 1.217919,-1.28853 2.629999,-2.29463 4.23624,-3.01832 1.606241,-0.72369 3.318388,-1.08554 5.136441,-1.08554 2.435837,0 4.651038,0.62661 6.645605,1.87983 2.01221,1.25322 3.60963,2.93889 4.79224,5.05701 1.20027,2.11812 1.8004,4.4657 1.8004,7.04275 0,1.92396 -0.34419,3.72436 -1.03258,5.40121 -0.68839,1.67685 -1.64154,3.15953 -2.85946,4.44805 -1.20027,1.27087 -2.60352,2.26816 -4.20976,2.99185 -1.588593,0.72369 -3.300742,1.08553 -5.136445,1.08553 z m 0,-3.70671 c 1.800403,0 3.415468,-0.46775 4.845195,-1.40325 1.44739,-0.95315 2.58588,-2.20638 3.41547,-3.75967 0.84725,-1.55329 1.27087,-3.23896 1.27087,-5.05701 0,-1.85335 -0.42362,-3.55667 -1.27087,-5.10996 -0.84725,-1.57094 -1.99456,-2.82416 -3.44194,-3.75966 -1.429733,-0.93551 -3.035975,-1.40326 -4.818725,-1.40326 -1.800402,0 -3.424294,0.47658 -4.871676,1.42973 -1.429731,0.93551 -2.56822,2.1799 -3.415468,3.73319 -0.829597,1.55329 -1.244396,3.25661 -1.244396,5.10996 0,1.90631 0.43245,3.63611 1.297349,5.1894 0.864899,1.53563 2.021039,2.76238 3.468421,3.68023 1.447382,0.9002 3.035972,1.3503 4.76577,1.3503 z m 46.492645,3.70671 c -2.43584,0 -4.65987,-0.62661 -6.67208,-1.87983 -1.99456,-1.25322 -3.39691,-2.46411 -4.59718,-4.56458 -1.18262,-2.11812 -1.96899,-4.92283 -1.96899,-7.48223 0,-1.94161 0.34419,-3.75083 1.03258,-5.42768 0.68839,-1.69449 1.63272,-3.17718 2.83299,-4.44805 1.21792,-1.28853 2.63,-2.29463 4.23624,-3.01832 1.60624,-0.72369 3.31839,-1.08554 5.13644,-1.08554 1.95926,0 3.75966,0.38832 5.40121,1.16497 1.65919,0.77664 3.0801,1.86218 4.26271,3.25661 1.20027,1.39443 2.10047,3.02714 2.70061,4.89815 0.61778,1.87101 0.87372,3.89205 0.76781,6.06312 h -22.45207 c 0.21181,1.67685 0.60806,3.97147 1.45531,5.29529 0.8649,1.32383 1.43586,1.82603 2.75969,2.60268 1.34147,0.75899 3.48084,0.90105 5.10473,0.9187 1.7651,0 3.35369,-0.45893 4.76577,-1.37678 1.42973,-0.91785 2.57705,-2.17989 3.44195,-3.78614 l 3.75966,0.87373 c -1.05906,2.34758 -2.65648,4.27154 -4.79225,5.77188 -2.13577,1.48268 -4.52748,2.22402 -7.17513,2.22402 z m -9.42563,-15.51523 h 18.82479 c -0.12356,-1.64154 -0.62661,-3.14187 -1.50916,-4.501 -0.8649,-1.37678 -1.98574,-2.47114 -3.36252,-3.28309 -1.37678,-0.82959 -2.88594,-1.24439 -4.52748,-1.24439 -1.64154,0 -3.14187,0.40597 -4.501,1.21792 -1.35913,0.79429 -2.47115,1.87983 -3.33604,3.25661 -0.8649,1.35913 -1.39443,2.87711 -1.58859,4.55395 z m 24.173,14.82684 9.6904,-13.2912 -9.66392,-13.26473 h 4.58043 l 7.38695,10.08755 7.36046,-10.08755 h 4.55396 l -9.63744,13.26473 9.6904,13.2912 h -4.58044 l -7.38694,-10.16697 -7.41342,10.16697 z m -30.42159,0.66565 c -0.84391,0 -0.4318,-0.0379 -0.67008,-0.0683 -0.47658,-0.0607 -0.94213,-0.15169 -1.39664,-0.27304 -0.90903,-0.2427 -1.77392,-0.60676 -2.5947,-1.09216 -1.64154,-0.9708 -2.94771,-2.27697 -3.91852,-3.91852 -0.9708,-1.64154 -1.45621,-3.45959 -1.45621,-5.45416 l 0.002,-3.09775 v -9.53154 h -4.79225 v -3.70671 h 4.79225 l -0.0265,-8.31362 h 3.70671 l 0.0265,8.31362 h 6.32788 v 3.70671 h -6.32788 c -0.0132,9.6904 0,7.16189 0,9.53154 l -0.002,2.35641 c 0,1.44738 0.35302,2.76238 1.05906,3.945 0.70604,1.18262 1.65037,2.12695 2.83299,2.83299 0.36138,0.21257 0.73315,0.39315 1.11533,0.54172 0.44359,0.17244 0.83408,0.388 1.32206,0.388 z"
       id="text1"
       aria-label="Quotex"
       sodipodi:nodetypes="cscccscscscscssccsssccscccssscsccssccsscscssccccccsssssccsccssccssccssccsccsccsccssccsccssccccccccccccsccccscccccccccccccccccssssccccccccccccccscscc"
       inkscape:export-filename="quotex-logo.png"
       inkscape:export-xdpi="96"
       inkscape:export-ydpi="96" />
    <path
       d="m 51.21805,136.74517 c -2.676827,0 -5.185182,-0.52414 -7.525066,-1.5724 -2.339883,-1.06699 -4.398981,-2.52708 -6.177292,-4.38027 -1.778312,-1.8719 -3.172882,-4.04331 -4.183712,-6.51422 -0.496056,-1.23546 -0.868097,-2.51304 -1.116125,-3.83274 -0.124014,-0.65985 -0.27891,-1.72667 -0.279032,-2.41254 2.805468,-5e-4 2.024942,0 3.913456,-5e-4 0,0.54232 0.125769,1.08863 0.226384,1.61979 0.201231,1.06231 0.503076,2.08952 0.905536,3.08163 0.804917,1.98422 1.918704,3.73445 3.341353,5.25069 1.422649,1.51625 3.060568,2.70491 4.913756,3.56599 1.871907,0.84235 3.865487,1.26353 5.980742,1.26353 h 2.943944 v 3.93104 h -2.94394"
       style="font-size:52.953px;line-height:0;font-family:Urbanist;-inkscape-font-specification:Urbanist;letter-spacing:0px;fill:#fcfcfc;fill-opacity:1;stroke:#ffffff;stroke-width:2.719;stroke-dasharray:none;stroke-opacity:1"
       id="path1-4"
       sodipodi:nodetypes="ccccsccsssccccc"
       inkscape:export-filename="Quotex.png"
       inkscape:export-xdpi="96"
       inkscape:export-ydpi="96" />
  </g>
</svg>
